<?xml version="1.0" encoding="UTF-8"?>
<!DOCTYPE svg PUBLIC "-//W3C//DTD SVG 1.1//EN" "http://www.w3.org/Graphics/SVG/1.1/DTD/svg11.dtd">
<svg xmlns="http://www.w3.org/2000/svg" version="1.1" width="500px" height="500px" style="shape-rendering:geometricPrecision; text-rendering:geometricPrecision; image-rendering:optimizeQuality; fill-rule:evenodd; clip-rule:evenodd" xmlns:xlink="http://www.w3.org/1999/xlink">
<g><path style="opacity:0.953" fill="#fefefe" d="M 237.5,48.5 C 309.558,47.3962 360.391,79.3962 390,144.5C 393.689,154.567 396.355,164.9 398,175.5C 399.205,196.142 399.871,216.809 400,237.5C 404.039,240.107 408.205,242.607 412.5,245C 422.853,254.536 426.687,266.369 424,280.5C 419.114,302.377 413.447,324.044 407,345.5C 398.144,359.58 385.31,366.08 368.5,365C 360.79,376.464 350.123,380.464 336.5,377C 322.625,373.93 315.625,365.263 315.5,351C 315.594,347.112 316.094,343.279 317,339.5C 326.349,301.438 336.015,263.438 346,225.5C 350.58,218.25 356.914,213.25 365,210.5C 367.368,158.058 345.868,118.892 300.5,93C 254.654,73.6979 212.321,79.3646 173.5,110C 143.765,137.604 131.099,171.438 135.5,211.5C 143.335,213.667 149.169,218.334 153,225.5C 162.665,263.155 172.332,300.822 182,338.5C 187.051,367.452 174.884,380.286 145.5,377C 139.296,374.459 134.296,370.459 130.5,365C 112.263,366.138 99.0962,358.638 91,342.5C 85.7113,323.585 80.7113,304.585 76,285.5C 70.6815,263.981 77.8481,248.481 97.5,239C 98.1258,238.25 98.6258,237.416 99,236.5C 99.3333,219.167 99.6667,201.833 100,184.5C 108.397,124.207 140.564,82.0405 196.5,58C 210.007,53.6024 223.673,50.4357 237.5,48.5 Z"/></g>
<g><path style="opacity:0.965" fill="#fdfefe" d="M 241.5,237.5 C 265.569,235.129 284.403,243.795 298,263.5C 312.623,293.197 307.456,318.697 282.5,340C 254.884,355.39 229.718,352.224 207,330.5C 190.971,308.971 189.304,286.304 202,262.5C 211.986,248.935 225.152,240.602 241.5,237.5 Z"/></g>
<g><path style="opacity:1" fill="#1fc36d" d="M 230.5,264.5 C 231.822,264.33 232.989,264.663 234,265.5C 234.667,284.167 234.667,302.833 234,321.5C 233,322.833 232,322.833 231,321.5C 230.5,302.503 230.333,283.503 230.5,264.5 Z"/></g>
<g><path style="opacity:1" fill="#34c673" d="M 222.5,277.5 C 223.5,277.5 224.5,277.5 225.5,277.5C 225.5,288.167 225.5,298.833 225.5,309.5C 224.178,309.67 223.011,309.337 222,308.5C 221.192,298.09 221.359,287.757 222.5,277.5 Z"/></g>
<g><path style="opacity:1" fill="#2ec470" d="M 238.5,277.5 C 239.822,277.33 240.989,277.663 242,278.5C 242.667,288.5 242.667,298.5 242,308.5C 240.286,309.925 238.953,309.592 238,307.5C 237.193,297.423 237.36,287.423 238.5,277.5 Z"/></g>
<g><path style="opacity:1" fill="#2fc471" d="M 254.5,277.5 C 255.822,277.33 256.989,277.663 258,278.5C 258.667,288.5 258.667,298.5 258,308.5C 256.667,309.833 255.333,309.833 254,308.5C 253.192,298.09 253.359,287.757 254.5,277.5 Z"/></g>
<g><path style="opacity:1" fill="#1dc26c" d="M 270.5,277.5 C 271.822,277.33 272.989,277.663 274,278.5C 274.667,288.5 274.667,298.5 274,308.5C 272.989,309.337 271.822,309.67 270.5,309.5C 270.5,298.833 270.5,288.167 270.5,277.5 Z"/></g>
<g><path style="opacity:1" fill="#22c36e" d="M 247.5,284.5 C 248.496,284.414 249.329,284.748 250,285.5C 250.667,290.833 250.667,296.167 250,301.5C 249,302.833 248,302.833 247,301.5C 246.215,295.751 246.382,290.084 247.5,284.5 Z"/></g>
<g><path style="opacity:1" fill="#33c673" d="M 262.5,284.5 C 263.822,284.33 264.989,284.663 266,285.5C 266.829,290.864 266.663,296.198 265.5,301.5C 264.5,302.833 263.5,302.833 262.5,301.5C 261.215,295.78 261.215,290.113 262.5,284.5 Z"/></g>
<g><path style="opacity:1" fill="#15c168" d="M 279.5,284.5 C 280.496,284.414 281.329,284.748 282,285.5C 282.667,290.833 282.667,296.167 282,301.5C 281,302.833 280,302.833 279,301.5C 278.215,295.751 278.382,290.084 279.5,284.5 Z"/></g>
<g><path style="opacity:1" fill="#29c471" d="M 215.5,287.5 C 216.496,287.414 217.329,287.748 218,288.5C 218.667,291.833 218.667,295.167 218,298.5C 217,299.833 216,299.833 215,298.5C 214.245,294.745 214.411,291.078 215.5,287.5 Z"/></g>
<g><path style="opacity:1" fill="#2cc572" d="M 286.5,287.5 C 287.496,287.414 288.329,287.748 289,288.5C 289.667,291.833 289.667,295.167 289,298.5C 288,299.833 287,299.833 286,298.5C 285.245,294.745 285.411,291.078 286.5,287.5 Z"/></g>
</svg>
